STARTFONT 2.1
FONT big5.5800.16
SIZE 16 72 72
FONTBOUNDINGBOX 16 16 0 -2
STARTPROPERTIES 4
FONT_DESCENT 2
FONT_ASCENT 14
DEFAULT_CHAR 0
COPYRIGHT "Copyright (c) 1992 AT&T - All rights reserved."
ENDPROPERTIES
CHARS 328
STARTCHAR ch-0
ENCODING 0
SWIDTH 1000 0
DWIDTH 16 0
BBX 16 16 0 -2
BITMAP
0802
09ff
0902
09fe
7f10
0954
0954
097c
0f10
7992
2292
0292
04fe
0882
0000
0000
ENDCHAR
STARTCHAR ch-1
ENCODING 1
SWIDTH 1000 0
DWIDTH 16 0
BBX 16 16 0 -2
BITMAP
03fe
2222
23fe
2222
7a22
23fe
2020
27ff
2870
30a8
6124
0222
0421
0020
0000
0000
ENDCHAR
STARTCHAR ch-2
ENCODING 2
SWIDTH 1000 0
DWIDTH 16 0
BBX 16 16 0 -2
BITMAP
1084
0888
7fff
4001
4ffa
0808
0808
0ff8
0080
0080
1ffc
0080
0080
7fff
0000
0000
ENDCHAR
STARTCHAR ch-4
ENCODING 4
SWIDTH 1000 0
DWIDTH 16 0
BBX 16 16 0 -2
BITMAP
2100
210e
2202
2602
7bde
2202
2202
23fe
2090
2890
3090
6111
0211
041f
0000
0000
ENDCHAR
STARTCHAR ch-5
ENCODING 5
SWIDTH 1000 0
DWIDTH 16 0
BBX 16 16 0 -2
BITMAP
7efe
4882
7e44
4228
7e10
482c
7ec3
4080
0080
0088
1ffc
0080
0082
7fff
0000
0000
ENDCHAR
STARTCHAR ch-6
ENCODING 6
SWIDTH 1000 0
DWIDTH 16 0
BBX 16 16 0 -2
BITMAP
0840
0850
0852
08ff
0890
7e94
09fe
0a90
0894
0efe
7090
2092
00ff
0080
0000
0000
ENDCHAR
STARTCHAR ch-7
ENCODING 7
SWIDTH 1000 0
DWIDTH 16 0
BBX 16 16 0 -2
BITMAP
0410
7fff
0410
07f0
0080
1ffc
1084
1ffc
0080
3ffe
0080
1ffc
0080
7fff
0000
0000
ENDCHAR
STARTCHAR ch-8
ENCODING 8
SWIDTH 1000 0
DWIDTH 16 0
BBX 16 16 0 -2
BITMAP
27ff
2401
2505
2489
7c51
27ff
2421
2525
2525
2d25
35fd
6401
0405
0402
0000
0000
ENDCHAR
STARTCHAR ch-9
ENCODING 9
SWIDTH 1000 0
DWIDTH 16 0
BBX 16 16 0 -2
BITMAP
0010
11ff
1020
1042
7dff
1001
10fe
1082
14fe
1882
60fe
0082
0102
0206
0000
0000
ENDCHAR
STARTCHAR ch-10
ENCODING 10
SWIDTH 1000 0
DWIDTH 16 0
BBX 16 16 0 -2
BITMAP
0002
7fff
0410
7c1f
4001
7c1f
0410
7fff
0080
0080
3ffe
0080
0082
7fff
0000
0000
ENDCHAR
STARTCHAR ch-11
ENCODING 11
SWIDTH 1000 0
DWIDTH 16 0
BBX 16 16 0 -2
BITMAP
1002
13df
1252
7e52
13de
1252
1252
13de
1e52
7252
2252
0452
04d2
0826
0000
0000
ENDCHAR
STARTCHAR ch-12
ENCODING 12
SWIDTH 1000 0
DWIDTH 16 0
BBX 16 16 0 -2
BITMAP
07ff
2401
2421
27ff
7c21
2421
25fd
2505
2505
2dfd
3505
6401
07ff
0401
0000
0000
ENDCHAR
STARTCHAR ch-13
ENCODING 13
SWIDTH 1000 0
DWIDTH 16 0
BBX 16 16 0 -2
BITMAP
1080
10fc
1108
7d10
13fe
1522
1122
11fe
1d52
7050
2098
0115
0211
0c0f
0000
0000
ENDCHAR
STARTCHAR ch-14
ENCODING 14
SWIDTH 1000 0
DWIDTH 16 0
BBX 16 16 0 -2
BITMAP
0020
2020
23fe
2020
7820
27ff
2204
2487
20fc
2988
3250
6020
0050
078f
0000
0000
ENDCHAR
STARTCHAR ch-16
ENCODING 16
SWIDTH 1000 0
DWIDTH 16 0
BBX 16 16 0 -2
BITMAP
03ff
2210
2210
22fe
7a10
2210
23ff
2210
2210
2afe
3210
6410
0010
01ff
0000
0000
ENDCHAR
STARTCHAR ch-20
ENCODING 20
SWIDTH 1000 0
DWIDTH 16 0
BBX 16 16 0 -2
BITMAP
01ff
1129
1129
1149
7c8e
1010
11ff
1410
1838
7054
0092
0111
0010
0010
0000
0000
ENDCHAR
STARTCHAR ch-25
ENCODING 25
SWIDTH 1000 0
DWIDTH 16 0
BBX 16 16 0 -2
BITMAP
0004
13fe
1050
1050
13fe
7e52
1252
13fe
1020
1420
19fc
7020
0022
07ff
0000
0000
ENDCHAR
STARTCHAR ch-27
ENCODING 27
SWIDTH 1000 0
DWIDTH 16 0
BBX 16 16 0 -2
BITMAP
00fe
1000
10fe
1082
7c82
10fe
1000
11ff
1511
1911
71ff
0111
0111
01ff
0000
0000
ENDCHAR
STARTCHAR ch-28
ENCODING 28
SWIDTH 1000 0
DWIDTH 16 0
BBX 16 16 0 -2
BITMAP
1010
11ff
1010
11ff
7911
1155
1139
11ff
1410
1854
7092
0111
0010
0010
0000
0000
ENDCHAR
STARTCHAR ch-29
ENCODING 29
SWIDTH 1000 0
DWIDTH 16 0
BBX 16 16 0 -2
BITMAP
01fe
1102
117e
7d22
1122
13ff
1201
1279
1e49
7249
0279
0201
0205
0202
0000
0000
ENDCHAR
STARTCHAR ch-30
ENCODING 30
SWIDTH 1000 0
DWIDTH 16 0
BBX 16 16 0 -2
BITMAP
0148
1148
17ff
1148
7d48
1178
11fe
1020
17ff
1470
18a8
7127
0622
0020
0000
0000
ENDCHAR
STARTCHAR ch-32
ENCODING 32
SWIDTH 1000 0
DWIDTH 16 0
BBX 16 16 0 -2
BITMAP
0880
08bc
0884
09ff
7f00
0b40
0d7e
0990
0912
0fff
7910
0128
0147
0182
0000
0000
ENDCHAR
STARTCHAR ch-33
ENCODING 33
SWIDTH 1000 0
DWIDTH 16 0
BBX 16 16 0 -2
BITMAP
0808
0bfc
1208
13f8
3040
5ffe
10e0
1158
1646
00c0
1ffc
0080
0080
7fff
0000
0000
ENDCHAR
STARTCHAR ch-35
ENCODING 35
SWIDTH 1000 0
DWIDTH 16 0
BBX 16 16 0 -2
BITMAP
00fe
1092
10fe
1092
7cfe
1092
1010
11ff
1511
1915
717d
0105
0101
0102
0000
0000
ENDCHAR
STARTCHAR ch-36
ENCODING 36
SWIDTH 1000 0
DWIDTH 16 0
BBX 16 16 0 -2
BITMAP
11fc
1104
11fc
7d04
11fc
1000
17ff
1020
1d24
713e
2220
0320
04e0
083f
0000
0000
ENDCHAR
STARTCHAR ch-37
ENCODING 37
SWIDTH 1000 0
DWIDTH 16 0
BBX 16 16 0 -2
BITMAP
7f10
0220
1c7f
0884
7f24
0a24
1824
6818
1866
0080
1ffc
0080
0080
7fff
0000
0000
ENDCHAR
STARTCHAR ch-39
ENCODING 39
SWIDTH 1000 0
DWIDTH 16 0
BBX 16 16 0 -2
BITMAP
01ff
1010
1020
11ff
1129
7d29
1129
1113
1010
15ff
1810
7028
0044
0383
0000
0000
ENDCHAR
STARTCHAR ch-40
ENCODING 40
SWIDTH 1000 0
DWIDTH 16 0
BBX 16 16 0 -2
BITMAP
01fe
1102
11fe
1102
7dfe
1080
11ff
1311
1111
1529
1945
7101
01f9
000e
0000
0000
ENDCHAR
STARTCHAR ch-41
ENCODING 41
SWIDTH 1000 0
DWIDTH 16 0
BBX 16 16 0 -2
BITMAP
22ff
2220
2220
7a3e
2322
26a2
2a32
222a
2226
2a22
327e
6202
0204
02ff
0000
0000
ENDCHAR
STARTCHAR ch-42
ENCODING 42
SWIDTH 1000 0
DWIDTH 16 0
BBX 16 16 0 -2
BITMAP
0088
23fe
2088
20f8
7888
20f8
2088
208a
27ff
2250
3a50
625e
0280
03ff
0000
0000
ENDCHAR
STARTCHAR ch-44
ENCODING 44
SWIDTH 1000 0
DWIDTH 16 0
BBX 16 16 0 -2
BITMAP
0038
1044
1082
1101
7c7c
1000
11e1
1129
15e9
1929
71e9
0129
0121
0263
0000
0000
ENDCHAR
STARTCHAR ch-45
ENCODING 45
SWIDTH 1000 0
DWIDTH 16 0
BBX 16 16 0 -2
BITMAP
0100
23fe
2602
23fe
7a02
23fe
2000
23fe
2820
3020
63fe
0020
0020
07ff
0000
0000
ENDCHAR
STARTCHAR ch-46
ENCODING 46
SWIDTH 1000 0
DWIDTH 16 0
BBX 16 16 0 -2
BITMAP
01ef
1129
1129
11ef
7c00
10fe
1000
11ff
1440
19ff
7001
0001
0012
000c
0000
0000
ENDCHAR
STARTCHAR ch-47
ENCODING 47
SWIDTH 1000 0
DWIDTH 16 0
BBX 16 16 0 -2
BITMAP
0080
0080
1ffc
0080
3ffe
0808
3e3e
0808
7f7f
0000
7fff
0410
0812
301e
0000
0000
ENDCHAR
STARTCHAR ch-48
ENCODING 48
SWIDTH 1000 0
DWIDTH 16 0
BBX 16 16 0 -2
BITMAP
09fe
0900
097e
0942
7f7e
0942
097e
0910
09ff
0f24
7964
2118
0124
01ff
0000
0000
ENDCHAR
STARTCHAR ch-49
ENCODING 49
SWIDTH 1000 0
DWIDTH 16 0
BBX 16 16 0 -2
BITMAP
0800
087f
3e41
0841
7f46
1440
147f
3e61
0861
0852
7f4c
0854
0862
0841
0000
0000
ENDCHAR
STARTCHAR ch-50
ENCODING 50
SWIDTH 1000 0
DWIDTH 16 0
BBX 16 16 0 -2
BITMAP
3f7f
2121
3f21
2121
3f22
202c
2420
7e20
0280
0080
1ffc
0080
0080
7fff
0000
0000
ENDCHAR
STARTCHAR ch-51
ENCODING 51
SWIDTH 1000 0
DWIDTH 16 0
BBX 16 16 0 -2
BITMAP
01ff
1111
1111
11ff
7d00
117f
1141
117f
1541
197f
7141
0141
027f
0041
0000
0000
ENDCHAR
STARTCHAR ch-52
ENCODING 52
SWIDTH 1000 0
DWIDTH 16 0
BBX 16 16 0 -2
BITMAP
00fe
1082
10fe
1082
7cfe
1000
11ff
1440
18ff
1125
6249
2191
202a
00cc
0000
0000
ENDCHAR
STARTCHAR ch-53
ENCODING 53
SWIDTH 1000 0
DWIDTH 16 0
BBX 16 16 0 -2
BITMAP
0820
0822
08fc
7e28
09ff
0820
08fc
0984
0f84
72fc
2484
0884
00fc
0084
0000
0000
ENDCHAR
STARTCHAR ch-54
ENCODING 54
SWIDTH 1000 0
DWIDTH 16 0
BBX 16 16 0 -2
BITMAP
0020
13ff
1040
10fe
7d08
12ff
1000
10fe
1482
18fe
7082
00fe
0082
0084
0000
0000
ENDCHAR
STARTCHAR ch-55
ENCODING 55
SWIDTH 1000 0
DWIDTH 16 0
BBX 16 16 0 -2
BITMAP
0020
1010
11ff
1044
1044
7c44
11ff
1000
10fe
1482
18fe
7082
00fe
0082
0000
0000
ENDCHAR
STARTCHAR ch-56
ENCODING 56
SWIDTH 1000 0
DWIDTH 16 0
BBX 16 16 0 -2
BITMAP
03fe
2202
22fa
2222
7a22
22fa
22aa
22aa
2afa
3222
622a
02fa
0203
0c01
0000
0000
ENDCHAR
STARTCHAR ch-57
ENCODING 57
SWIDTH 1000 0
DWIDTH 16 0
BBX 16 16 0 -2
BITMAP
0004
10f8
1010
11ff
7c10
10fe
1092
10fe
1092
14fe
1810
70fe
0010
03ff
0000
0000
ENDCHAR
STARTCHAR ch-59
ENCODING 59
SWIDTH 1000 0
DWIDTH 16 0
BBX 16 16 0 -2
BITMAP
2020
19fc
4824
33ff
1024
05fc
0820
33fe
0020
07ff
00a0
1ffc
0080
7fff
0000
0000
ENDCHAR
STARTCHAR ch-61
ENCODING 61
SWIDTH 1000 0
DWIDTH 16 0
BBX 16 16 0 -2
BITMAP
13ff
1249
1249
13ff
7c00
13ff
1020
1020
1120
153e
1920
7120
0120
07ff
0000
0000
ENDCHAR
STARTCHAR ch-63
ENCODING 63
SWIDTH 1000 0
DWIDTH 16 0
BBX 16 16 0 -2
BITMAP
000a
2009
23ff
2208
7ae8
2208
22e8
22a8
2aa9
32aa
62ec
020c
0413
0861
0000
0000
ENDCHAR
STARTCHAR ch-72
ENCODING 72
SWIDTH 1000 0
DWIDTH 16 0
BBX 16 16 0 -2
BITMAP
3f7e
2148
3f48
217f
3f08
2818
2428
2a49
708f
0080
1ffc
0080
0080
7fff
0000
0000
ENDCHAR
STARTCHAR ch-73
ENCODING 73
SWIDTH 1000 0
DWIDTH 16 0
BBX 16 16 0 -2
BITMAP
2124
20a8
2222
7954
2088
2104
23fe
2505
21fc
2904
31fc
6104
0104
020c
0000
0000
ENDCHAR
STARTCHAR ch-74
ENCODING 74
SWIDTH 1000 0
DWIDTH 16 0
BBX 16 16 0 -2
BITMAP
2080
2100
23fe
7a22
23fe
2222
23fe
2292
2090
2892
3095
609f
0111
061f
0000
0000
ENDCHAR
STARTCHAR ch-75
ENCODING 75
SWIDTH 1000 0
DWIDTH 16 0
BBX 16 16 0 -2
BITMAP
2929
2a2a
1c1c
1414
2326
4142
3fff
6003
4082
0090
0ff8
0080
0084
3ffe
0000
0000
ENDCHAR
STARTCHAR ch-76
ENCODING 76
SWIDTH 1000 0
DWIDTH 16 0
BBX 16 16 0 -2
BITMAP
11fe
1102
11fe
1102
7dfe
1000
13cf
1041
1145
1cc3
734d
2041
0145
0082
0000
0000
ENDCHAR
STARTCHAR ch-77
ENCODING 77
SWIDTH 1000 0
DWIDTH 16 0
BBX 16 16 0 -2
BITMAP
0020
3d24
24a8
2420
25fe
3c20
27ff
2488
3d27
2622
25fc
2420
2422
4fff
0000
0000
ENDCHAR
STARTCHAR ch-78
ENCODING 78
SWIDTH 1000 0
DWIDTH 16 0
BBX 16 16 0 -2
BITMAP
0040
2020
27ff
2489
7d25
2252
2088
2104
2202
29fc
3104
6104
01fc
0104
0000
0000
ENDCHAR
STARTCHAR ch-79
ENCODING 79
SWIDTH 1000 0
DWIDTH 16 0
BBX 16 16 0 -2
BITMAP
0010
1111
1111
11ff
7c00
11ff
1000
10fe
1482
1882
70fe
0082
0044
03ff
0000
0000
ENDCHAR
STARTCHAR ch-81
ENCODING 81
SWIDTH 1000 0
DWIDTH 16 0
BBX 16 16 0 -2
BITMAP
1102
0a3f
7fe2
043e
1522
153e
1f22
044a
0884
0080
3ffe
0080
0082
7fff
0000
0000
ENDCHAR
STARTCHAR ch-82
ENCODING 82
SWIDTH 1000 0
DWIDTH 16 0
BBX 16 16 0 -2
BITMAP
2008
207f
2788
2488
7cff
2484
2784
24ff
2484
2ca4
3794
6484
0014
0008
0000
0000
ENDCHAR
STARTCHAR ch-83
ENCODING 83
SWIDTH 1000 0
DWIDTH 16 0
BBX 16 16 0 -2
BITMAP
07ff
2401
25fd
2104
79fc
2104
21fc
2020
2020
27ff
2800
3104
6202
0401
0000
0000
ENDCHAR
STARTCHAR ch-84
ENCODING 84
SWIDTH 1000 0
DWIDTH 16 0
BBX 16 16 0 -2
BITMAP
0084
1084
13ff
1084
1030
1048
7c84
1103
12fd
1000
15fe
1902
7102
41fe
0000
0000
ENDCHAR
STARTCHAR ch-85
ENCODING 85
SWIDTH 1000 0
DWIDTH 16 0
BBX 16 16 0 -2
BITMAP
0088
2104
2222
2440
7888
21fc
2000
27df
2041
2f5d
3041
67df
0041
038e
0000
0000
ENDCHAR
STARTCHAR ch-87
ENCODING 87
SWIDTH 1000 0
DWIDTH 16 0
BBX 16 16 0 -2
BITMAP
2010
1828
0044
20ba
1911
04fe
0838
3054
1092
1080
0ff8
0080
0080
3ffe
0000
0000
ENDCHAR
STARTCHAR ch-88
ENCODING 88
SWIDTH 1000 0
DWIDTH 16 0
BBX 16 16 0 -2
BITMAP
2010
23ff
2210
22fe
7a12
23ff
2212
22fe
2210
2afe
3282
6282
04fe
0882
0000
0000
ENDCHAR
STARTCHAR ch-89
ENCODING 89
SWIDTH 1000 0
DWIDTH 16 0
BBX 16 16 0 -2
BITMAP
0010
11ff
1000
10fe
7c82
10fe
1000
11ff
1501
197d
7145
017d
0101
0107
0000
0000
ENDCHAR
STARTCHAR ch-90
ENCODING 90
SWIDTH 1000 0
DWIDTH 16 0
BBX 16 16 0 -2
BITMAP
27ff
2401
2000
23fe
7880
20e1
2132
264c
2098
29a8
324c
60ab
0110
0060
0000
0000
ENDCHAR
STARTCHAR ch-91
ENCODING 91
SWIDTH 1000 0
DWIDTH 16 0
BBX 16 16 0 -2
BITMAP
23fe
2050
23fe
2252
7a52
23fe
2020
2020
27ff
28a8
3124
6222
0421
0020
0000
0000
ENDCHAR
STARTCHAR ch-93
ENCODING 93
SWIDTH 1000 0
DWIDTH 16 0
BBX 16 16 0 -2
BITMAP
2010
23ff
2084
2084
7bff
2201
2010
23ff
2040
287e
3042
6042
0082
010c
0000
0000
ENDCHAR
STARTCHAR ch-94
ENCODING 94
SWIDTH 1000 0
DWIDTH 16 0
BBX 16 16 0 -2
BITMAP
0080
3fff
2221
4ffa
0220
0ff8
0220
3ffe
02a0
0c98
33e6
4081
0080
3ffe
0000
0000
ENDCHAR
STARTCHAR ch-98
ENCODING 98
SWIDTH 1000 0
DWIDTH 16 0
BBX 16 16 0 -2
BITMAP
2100
23fe
2502
2102
21fe
7900
21fe
2100
21ff
2801
3155
6255
0001
001e
0000
0000
ENDCHAR
STARTCHAR ch-99
ENCODING 99
SWIDTH 1000 0
DWIDTH 16 0
BBX 16 16 0 -2
BITMAP
23fe
1202
4bfe
2002
13fc
0020
0bfe
1020
67ff
0080
1ffc
0080
0080
7fff
0000
0000
ENDCHAR
STARTCHAR ch-100
ENCODING 100
SWIDTH 1000 0
DWIDTH 16 0
BBX 16 16 0 -2
BITMAP
01fe
1102
11fe
1000
7dfe
1102
11fe
1102
15fe
1902
71fe
0048
0084
0303
0000
0000
ENDCHAR
STARTCHAR ch-101
ENCODING 101
SWIDTH 1000 0
DWIDTH 16 0
BBX 16 16 0 -2
BITMAP
01ff
1000
10fe
1082
7c82
10fe
1000
11ff
1545
1929
717d
0111
0115
0102
0000
0000
ENDCHAR
STARTCHAR ch-104
ENCODING 104
SWIDTH 1000 0
DWIDTH 16 0
BBX 16 16 0 -2
BITMAP
0088
2088
23fe
2088
7888
27ff
2104
2222
2421
2924
3122
6228
04a4
0062
0000
0000
ENDCHAR
STARTCHAR ch-107
ENCODING 107
SWIDTH 1000 0
DWIDTH 16 0
BBX 16 16 0 -2
BITMAP
0820
0bfe
0820
09fc
7f04
09fc
0904
09fc
0904
0ffc
7904
27ff
0104
0202
0000
0000
ENDCHAR
STARTCHAR ch-109
ENCODING 109
SWIDTH 1000 0
DWIDTH 16 0
BBX 16 16 0 -2
BITMAP
21fc
2124
2124
2154
798c
2104
21fc
2000
23fe
2a52
3252
6252
0252
07ff
0000
0000
ENDCHAR
STARTCHAR ch-111
ENCODING 111
SWIDTH 1000 0
DWIDTH 16 0
BBX 16 16 0 -2
BITMAP
0040
118f
1145
1125
7d45
118a
1000
10fe
1292
1492
18fe
7092
0092
00fe
0000
0000
ENDCHAR
STARTCHAR ch-113
ENCODING 113
SWIDTH 1000 0
DWIDTH 16 0
BBX 16 16 0 -2
BITMAP
083f
7f21
413f
7f21
413f
7f21
4821
4c21
7241
0080
0080
1ffc
0080
7fff
0000
0000
ENDCHAR
STARTCHAR ch-116
ENCODING 116
SWIDTH 1000 0
DWIDTH 16 0
BBX 16 16 0 -2
BITMAP
0020
2421
2421
27ff
7800
27df
2451
27df
2451
2fdf
3451
6451
0451
08e3
0000
0000
ENDCHAR
STARTCHAR ch-117
ENCODING 117
SWIDTH 1000 0
DWIDTH 16 0
BBX 16 16 0 -2
BITMAP
0080
3fff
2220
3ffe
2222
3ffe
2820
2fbe
2820
2fbf
4080
1ffc
0080
7fff
0000
0000
ENDCHAR
STARTCHAR ch-118
ENCODING 118
SWIDTH 1000 0
DWIDTH 16 0
BBX 16 16 0 -2
BITMAP
0010
13ff
1248
13ff
7e49
1249
13ff
1200
1684
1a95
72e6
0284
0495
09f7
0000
0000
ENDCHAR
STARTCHAR ch-121
ENCODING 121
SWIDTH 1000 0
DWIDTH 16 0
BBX 16 16 0 -2
BITMAP
0802
7f7c
0840
3e7f
2a44
3e44
2a44
3e44
0884
7f04
0880
1ffc
0080
7fff
0000
0000
ENDCHAR
STARTCHAR ch-122
ENCODING 122
SWIDTH 1000 0
DWIDTH 16 0
BBX 16 16 0 -2
BITMAP
0040
3fff
2208
2208
2fbe
2208
271c
2aaa
2208
2040
27fc
2040
4040
1fff
0000
0000
ENDCHAR
STARTCHAR ch-123
ENCODING 123
SWIDTH 1000 0
DWIDTH 16 0
BBX 16 16 0 -2
BITMAP
0048
13ff
1048
11fe
7d02
11fe
1102
11fe
1420
1bff
7048
0084
0102
0201
0000
0000
ENDCHAR
STARTCHAR ch-124
ENCODING 124
SWIDTH 1000 0
DWIDTH 16 0
BBX 16 16 0 -2
BITMAP
0020
27ff
2020
23fe
7a22
23fe
2222
23fe
3021
2fff
4004
0fff
0204
001c
0000
0000
ENDCHAR
STARTCHAR ch-125
ENCODING 125
SWIDTH 1000 0
DWIDTH 16 0
BBX 16 16 0 -2
BITMAP
0010
11ff
1010
1155
7c92
1155
1010
1155
1092
1d55
7010
0028
0044
0183
0000
0000
ENDCHAR
STARTCHAR ch-126
ENCODING 126
SWIDTH 1000 0
DWIDTH 16 0
BBX 16 16 0 -2
BITMAP
0410
7fd0
1f7c
1114
1f34
3f2c
0224
3f45
0483
0c80
3ffe
0080
0082
7fff
0000
0000
ENDCHAR
STARTCHAR ch-127
ENCODING 127
SWIDTH 1000 0
DWIDTH 16 0
BBX 16 16 0 -2
BITMAP
0010
10fe
11ff
1092
7cfe
1010
10fe
1092
14fe
1844
61ff
0028
0010
03ef
0000
0000
ENDCHAR
STARTCHAR ch-128
ENCODING 128
SWIDTH 1000 0
DWIDTH 16 0
BBX 16 16 0 -2
BITMAP
13fe
1202
13fe
7e92
1254
1292
1250
127e
1e50
7292
23ff
0410
0810
0010
0000
0000
ENDCHAR
STARTCHAR ch-129
ENCODING 129
SWIDTH 1000 0
DWIDTH 16 0
BBX 16 16 0 -2
BITMAP
01fc
1104
11fc
1104
7dfc
1000
13fe
1252
13fe
1800
71fc
0088
0070
078f
0000
0000
ENDCHAR
STARTCHAR ch-130
ENCODING 130
SWIDTH 1000 0
DWIDTH 16 0
BBX 16 16 0 -2
BITMAP
01ff
1028
11ff
1129
7d29
11ff
1000
10fe
1400
19ff
7054
0092
0111
0010
0000
0000
ENDCHAR
STARTCHAR ch-131
ENCODING 131
SWIDTH 1000 0
DWIDTH 16 0
BBX 16 16 0 -2
BITMAP
1040
13fe
1088
1050
7bff
11fc
1104
11fc
1104
1dfc
7090
2091
0111
060f
0000
0000
ENDCHAR
STARTCHAR ch-133
ENCODING 133
SWIDTH 1000 0
DWIDTH 16 0
BBX 16 16 0 -2
BITMAP
3fbe
2482
3f94
2488
3fff
0409
3f8a
0428
3f90
0080
1ffc
0080
0082
7fff
0000
0000
ENDCHAR
STARTCHAR ch-134
ENCODING 134
SWIDTH 1000 0
DWIDTH 16 0
BBX 16 16 0 -2
BITMAP
10aa
10aa
11ff
10aa
7d3b
1000
11ff
1111
10fe
1492
1892
7096
0010
0010
0000
0000
ENDCHAR
STARTCHAR ch-135
ENCODING 135
SWIDTH 1000 0
DWIDTH 16 0
BBX 16 16 0 -2
BITMAP
0010
11ff
1044
11ff
7c00
10fe
1082
10fe
1082
14fe
1810
71ff
0010
0010
0000
0000
ENDCHAR
STARTCHAR ch-136
ENCODING 136
SWIDTH 1000 0
DWIDTH 16 0
BBX 16 16 0 -2
BITMAP
2244
27e4
2244
23df
7a45
23c5
2245
2ff5
2545
2d45
3569
6611
0401
07f6
0000
0000
ENDCHAR
STARTCHAR ch-137
ENCODING 137
SWIDTH 1000 0
DWIDTH 16 0
BBX 16 16 0 -2
BITMAP
1010
13ff
1210
12fe
7fff
12fe
1210
12fe
1692
1afe
7292
02fe
0492
0096
0000
0000
ENDCHAR
STARTCHAR ch-138
ENCODING 138
SWIDTH 1000 0
DWIDTH 16 0
BBX 16 16 0 -2
BITMAP
0810
3e7c
0814
7f54
2234
7f14
0825
7f45
0807
0080
3ffe
0080
0080
7fff
0000
0000
ENDCHAR
STARTCHAR ch-139
ENCODING 139
SWIDTH 1000 0
DWIDTH 16 0
BBX 16 16 0 -2
BITMAP
0040
1084
11fc
1104
7a29
17ff
1048
1094
152a
1a51
74a4
0048
0010
01e0
0000
0000
ENDCHAR
STARTCHAR ch-142
ENCODING 142
SWIDTH 1000 0
DWIDTH 16 0
BBX 16 16 0 -2
BITMAP
0080
17ff
1009
13e9
7e2a
13ec
100a
17e9
1049
1889
77ed
008a
0288
0108
0000
0000
ENDCHAR
STARTCHAR ch-143
ENCODING 143
SWIDTH 1000 0
DWIDTH 16 0
BBX 16 16 0 -2
BITMAP
0220
227e
2292
3e4c
0238
0204
7fff
1244
1224
228c
0080
1ffc
0080
7fff
0000
0000
ENDCHAR
STARTCHAR ch-144
ENCODING 144
SWIDTH 1000 0
DWIDTH 16 0
BBX 16 16 0 -2
BITMAP
0044
11ff
1044
107c
7c10
10fe
1092
10fe
1410
18fe
7010
00fe
0010
01ff
0000
0000
ENDCHAR
STARTCHAR ch-145
ENCODING 145
SWIDTH 1000 0
DWIDTH 16 0
BBX 16 16 0 -2
BITMAP
0010
13ff
1084
1048
7fff
1221
13ff
1221
12fd
1685
1a85
72fd
0201
0202
0000
0000
ENDCHAR
STARTCHAR ch-147
ENCODING 147
SWIDTH 1000 0
DWIDTH 16 0
BBX 16 16 0 -2
BITMAP
0220
3ffe
0ff8
0808
0ff8
0808
0ff8
0100
7fff
0498
1be7
6082
0090
0ff8
0000
0000
ENDCHAR
STARTCHAR ch-148
ENCODING 148
SWIDTH 1000 0
DWIDTH 16 0
BBX 16 16 0 -2
BITMAP
0010
1111
11ff
1040
7c88
1188
12ff
1088
14ff
1888
70ff
0088
00ff
0080
0000
0000
ENDCHAR
STARTCHAR ch-152
ENCODING 152
SWIDTH 1000 0
DWIDTH 16 0
BBX 16 16 0 -2
BITMAP
2108
27c8
210f
27d0
7c40
27de
2442
27c2
2102
2904
37c8
6111
0111
011f
0000
0000
ENDCHAR
STARTCHAR ch-156
ENCODING 156
SWIDTH 1000 0
DWIDTH 16 0
BBX 16 16 0 -2
BITMAP
3c44
25ff
2420
2852
24ac
245c
28aa
2049
2090
0080
1ffc
0080
0082
7fff
0000
0000
ENDCHAR
STARTCHAR ch-157
ENCODING 157
SWIDTH 1000 0
DWIDTH 16 0
BBX 16 16 0 -2
BITMAP
0010
107c
1010
10fe
7c82
11c7
1082
13cf
1000
1dff
7044
0045
0085
0107
0000
0000
ENDCHAR
STARTCHAR ch-158
ENCODING 158
SWIDTH 1000 0
DWIDTH 16 0
BBX 16 16 0 -2
BITMAP
110c
10c8
1050
13fe
7e22
12aa
1222
13fe
1c00
71fc
2104
01fc
0104
01fc
0000
0000
ENDCHAR
STARTCHAR ch-159
ENCODING 159
SWIDTH 1000 0
DWIDTH 16 0
BBX 16 16 0 -2
BITMAP
1040
107e
1040
13ff
7e41
127c
13c2
127e
1228
1eaa
72aa
04ee
0828
13ff
0000
0000
ENDCHAR
STARTCHAR ch-160
ENCODING 160
SWIDTH 1000 0
DWIDTH 16 0
BBX 16 16 0 -2
BITMAP
01ef
1129
11ef
1000
7cfe
1092
10fe
1092
1cfe
7010
01ff
0010
0010
0010
0000
0000
ENDCHAR
STARTCHAR ch-161
ENCODING 161
SWIDTH 1000 0
DWIDTH 16 0
BBX 16 16 0 -2
BITMAP
0082
0044
11ff
1010
11ff
7c10
11ff
1044
11ff
1044
1cfe
7082
0082
00fe
0000
0000
ENDCHAR
STARTCHAR ch-163
ENCODING 163
SWIDTH 1000 0
DWIDTH 16 0
BBX 16 16 0 -2
BITMAP
0129
10aa
11ff
1044
7c28
11ff
1010
10fe
1010
1dff
7028
0044
0082
0101
0000
0000
ENDCHAR
STARTCHAR ch-165
ENCODING 165
SWIDTH 1000 0
DWIDTH 16 0
BBX 16 16 0 -2
BITMAP
0010
11ff
1044
11ff
1000
7cfe
1092
10fe
1092
10fe
1c10
70fe
0010
01ff
0000
0000
ENDCHAR
STARTCHAR ch-166
ENCODING 166
SWIDTH 1000 0
DWIDTH 16 0
BBX 16 16 0 -2
BITMAP
01fe
0010
1092
1054
13ff
7c54
1092
1111
11ff
1d11
71ff
0111
01ff
0101
0000
0000
ENDCHAR
STARTCHAR ch-168
ENCODING 168
SWIDTH 1000 0
DWIDTH 16 0
BBX 16 16 0 -2
BITMAP
1ffc
1494
12a4
1ffc
0080
1ffc
0080
3ffe
1224
2113
4081
1ffc
0080
3ffe
0000
0000
ENDCHAR
STARTCHAR ch-169
ENCODING 169
SWIDTH 1000 0
DWIDTH 16 0
BBX 16 16 0 -2
BITMAP
1108
1fe8
1010
17df
7c62
17d2
17d2
1094
1914
71c8
2708
0114
0523
0242
0000
0000
ENDCHAR
STARTCHAR ch-171
ENCODING 171
SWIDTH 1000 0
DWIDTH 16 0
BBX 16 16 0 -2
BITMAP
0044
11ff
1028
10fe
7caa
10c6
10ba
1082
10fe
1c04
71ff
0044
0004
0018
0000
0000
ENDCHAR
STARTCHAR ch-172
ENCODING 172
SWIDTH 1000 0
DWIDTH 16 0
BBX 16 16 0 -2
BITMAP
0082
7c44
4828
51ff
4820
443a
444c
449c
552a
4849
4098
1ffc
0080
7fff
0000
0000
ENDCHAR
STARTCHAR ch-174
ENCODING 174
SWIDTH 1000 0
DWIDTH 16 0
BBX 16 16 0 -2
BITMAP
7c20
45ff
487e
5088
493e
467e
4442
687a
505e
40c2
0080
1ffc
0080
7fff
0000
0000
ENDCHAR
STARTCHAR ch-175
ENCODING 175
SWIDTH 1000 0
DWIDTH 16 0
BBX 16 16 0 -2
BITMAP
1020
11fe
5040
50fc
7d10
50fe
507c
1044
107c
107c
108c
1ffc
0080
7fff
0000
0000
ENDCHAR
STARTCHAR ch-177
ENCODING 177
SWIDTH 1000 0
DWIDTH 16 0
BBX 16 16 0 -2
BITMAP
01ef
1028
1145
1082
7d01
10fe
1000
107c
1044
147c
1800
7082
0044
01ff
0000
0000
ENDCHAR
STARTCHAR ch-179
ENCODING 179
SWIDTH 1000 0
DWIDTH 16 0
BBX 16 16 0 -2
BITMAP
0010
10fe
1054
11ff
7c44
10fe
1082
10fe
1082
1cfe
7082
00fe
0044
0082
0000
0000
ENDCHAR
STARTCHAR ch-186
ENCODING 186
SWIDTH 1000 0
DWIDTH 16 0
BBX 16 16 0 -2
BITMAP
2100
23fe
2202
26fa
7aaa
2272
23fe
2272
22aa
2222
2fff
3050
6088
0306
0000
0000
ENDCHAR
STARTCHAR ch-188
ENCODING 188
SWIDTH 1000 0
DWIDTH 16 0
BBX 16 16 0 -2
BITMAP
041c
7fd4
3f94
24a3
3f80
24be
3f94
7fc8
2494
3fa3
0080
1ffc
0080
7fff
0000
0000
ENDCHAR
STARTCHAR ch-189
ENCODING 189
SWIDTH 1000 0
DWIDTH 16 0
BBX 16 16 0 -2
BITMAP
2110
27d0
245f
27e2
7c42
27d2
2112
27d2
2212
2bd2
324a
6444
084a
01d1
0000
0000
ENDCHAR
STARTCHAR ch-190
ENCODING 190
SWIDTH 1000 0
DWIDTH 16 0
BBX 16 16 0 -2
BITMAP
1002
1c7f
6442
187e
7442
067e
3a54
0648
3a54
04a2
0080
1ffc
0080
3ffe
0000
0000
ENDCHAR
STARTCHAR ch-191
ENCODING 191
SWIDTH 1000 0
DWIDTH 16 0
BBX 16 16 0 -2
BITMAP
07ff
2489
27ff
2020
7bfe
2020
27ff
2104
2088
23fe
2820
37ff
6020
0020
0000
0000
ENDCHAR
STARTCHAR ch-193
ENCODING 193
SWIDTH 1000 0
DWIDTH 16 0
BBX 16 16 0 -2
BITMAP
0008
1f08
117f
1122
1f14
10ff
1f08
313e
5f48
0040
0ffc
0040
0042
3fff
0000
0000
ENDCHAR
STARTCHAR ch-194
ENCODING 194
SWIDTH 1000 0
DWIDTH 16 0
BBX 16 16 0 -2
BITMAP
3fbc
20a4
3fa4
2925
2947
3fbe
2922
3f9c
4922
10c1
0080
1ffc
0080
7fff
0000
0000
ENDCHAR
STARTCHAR ch-197
ENCODING 197
SWIDTH 1000 0
DWIDTH 16 0
BBX 16 16 0 -2
BITMAP
0080
7fff
0848
0a7f
12c8
3d7e
0848
127e
3e48
047f
3880
1ffc
0080
7fff
0000
0000
ENDCHAR
STARTCHAR ch-198
ENCODING 198
SWIDTH 1000 0
DWIDTH 16 0
BBX 16 16 0 -2
BITMAP
095c
3084
1d5c
1004
1144
1c9c
1144
7fff
4081
0080
0ff8
0080
0080
3ffe
0000
0000
ENDCHAR
STARTCHAR ch-199
ENCODING 199
SWIDTH 1000 0
DWIDTH 16 0
BBX 16 16 0 -2
BITMAP
0040
0020
27ff
23fe
2272
7a52
2272
23fe
21fc
2104
29fc
3104
61fc
07ff
0000
0000
ENDCHAR
STARTCHAR ch-200
ENCODING 200
SWIDTH 1000 0
DWIDTH 16 0
BBX 16 16 0 -2
BITMAP
2020
27ff
23fe
22fa
7a8a
22fa
23fe
2000
23fe
2020
2fff
30a8
6124
0623
0000
0000
ENDCHAR
STARTCHAR ch-201
ENCODING 201
SWIDTH 1000 0
DWIDTH 16 0
BBX 16 16 0 -2
BITMAP
0020
0038
11fe
1122
11fc
7d20
113c
11fc
1142
11f4
1128
125c
7caa
0059
0000
0000
ENDCHAR
STARTCHAR ch-206
ENCODING 206
SWIDTH 1000 0
DWIDTH 16 0
BBX 16 16 0 -2
BITMAP
00fe
1010
11ff
1010
7dff
1155
1139
11ff
1010
1cfe
7010
03ff
0249
0249
0000
0000
ENDCHAR
STARTCHAR ch-207
ENCODING 207
SWIDTH 1000 0
DWIDTH 16 0
BBX 16 16 0 -2
BITMAP
07e0
2488
248f
27c8
7c50
27c7
2480
27e0
2000
2bfe
3252
6252
0252
07ff
0000
0000
ENDCHAR
STARTCHAR ch-209
ENCODING 209
SWIDTH 1000 0
DWIDTH 16 0
BBX 16 16 0 -2
BITMAP
0400
0780
043e
3fc2
2052
5f14
2a88
1f14
1123
1f00
0080
1ffc
0080
7fff
0000
0000
ENDCHAR
STARTCHAR ch-210
ENCODING 210
SWIDTH 1000 0
DWIDTH 16 0
BBX 16 16 0 -2
BITMAP
2104
27ff
2124
79fc
2020
23fe
2048
21fc
2004
2bfe
3252
6252
0252
07ff
0000
0000
ENDCHAR
STARTCHAR ch-211
ENCODING 211
SWIDTH 1000 0
DWIDTH 16 0
BBX 16 16 0 -2
BITMAP
3fff
2780
278a
2489
27ff
2f88
2888
2f94
2ea2
29c1
4080
1ffc
0080
7fff
0000
0000
ENDCHAR
STARTCHAR ch-212
ENCODING 212
SWIDTH 1000 0
DWIDTH 16 0
BBX 16 16 0 -2
BITMAP
0020
23fe
2020
21fc
7fff
20fa
2020
20f8
27ff
2002
2bdf
3242
63d2
0006
0000
0000
ENDCHAR
STARTCHAR ch-213
ENCODING 213
SWIDTH 1000 0
DWIDTH 16 0
BBX 16 16 0 -2
BITMAP
0010
13ff
10fc
1084
7cfc
13ff
1201
12fd
1040
1cfa
712c
0058
00ac
015a
0000
0000
ENDCHAR
STARTCHAR ch-214
ENCODING 214
SWIDTH 1000 0
DWIDTH 16 0
BBX 16 16 0 -2
BITMAP
01ff
1010
11ff
7d55
1139
1155
1010
11ff
1420
19ff
1129
6129
0129
012b
0000
0000
ENDCHAR
STARTCHAR ch-216
ENCODING 216
SWIDTH 1000 0
DWIDTH 16 0
BBX 16 16 0 -2
BITMAP
1ffc
1084
1ffc
1084
1ffc
7f7f
4949
7f7f
4949
7f7f
0080
1ffc
0080
7fff
0000
0000
ENDCHAR
STARTCHAR ch-217
ENCODING 217
SWIDTH 1000 0
DWIDTH 16 0
BBX 16 16 0 -2
BITMAP
0010
13ff
1224
12ff
7e24
12ff
1208
12ff
1689
1aff
6289
04ff
0842
0081
0000
0000
ENDCHAR
STARTCHAR ch-218
ENCODING 218
SWIDTH 1000 0
DWIDTH 16 0
BBX 16 16 0 -2
BITMAP
0020
0038
13ff
1221
12fc
7e3c
127c
1254
127c
1254
127c
14fe
7caa
01ff
0000
0000
ENDCHAR
STARTCHAR ch-219
ENCODING 219
SWIDTH 1000 0
DWIDTH 16 0
BBX 16 16 0 -2
BITMAP
03cf
0249
13cf
1249
13cf
7e41
127d
1289
1241
128d
1285
12ed
7e85
02ff
0000
0000
ENDCHAR
STARTCHAR ch-221
ENCODING 221
SWIDTH 1000 0
DWIDTH 16 0
BBX 16 16 0 -2
BITMAP
0208
013e
102a
17be
10ff
7cbe
1122
123e
1122
10be
10a2
113e
7e23
05ff
0000
0000
ENDCHAR
STARTCHAR ch-222
ENCODING 222
SWIDTH 1000 0
DWIDTH 16 0
BBX 16 16 0 -2
BITMAP
0010
11ff
1000
11ff
7d45
11ff
1010
11d7
1410
19d7
7192
028c
04a4
01c3
0000
0000
ENDCHAR
STARTCHAR ch-223
ENCODING 223
SWIDTH 1000 0
DWIDTH 16 0
BBX 16 16 0 -2
BITMAP
0840
7f7e
2240
7f7e
0002
7f7e
417e
7f40
417c
7f7d
477f
0080
1ffc
7fff
0000
0000
ENDCHAR
STARTCHAR ch-226
ENCODING 226
SWIDTH 1000 0
DWIDTH 16 0
BBX 16 16 0 -2
BITMAP
03ff
2221
23de
2244
7bff
22c4
236e
2255
2254
2a10
329e
6490
0890
01ff
0000
0000
ENDCHAR
STARTCHAR ch-227
ENCODING 227
SWIDTH 1000 0
DWIDTH 16 0
BBX 16 16 0 -2
BITMAP
2f44
2599
2566
2544
7799
25ff
2500
2524
27a5
25a5
25e7
7724
0124
0144
0000
0000
ENDCHAR
STARTCHAR ch-228
ENCODING 228
SWIDTH 1000 0
DWIDTH 16 0
BBX 16 16 0 -2
BITMAP
1020
13ff
11dc
7d54
11dc
1088
13fe
11fc
1c88
77ff
20a4
0198
0687
00c2
0000
0000
ENDCHAR
STARTCHAR ch-231
ENCODING 231
SWIDTH 1000 0
DWIDTH 16 0
BBX 16 16 0 -2
BITMAP
01ef
1129
11ef
11ff
7d04
1174
1127
11fa
115a
117a
117a
1254
7cf2
0019
0000
0000
ENDCHAR
STARTCHAR ch-232
ENCODING 232
SWIDTH 1000 0
DWIDTH 16 0
BBX 16 16 0 -2
BITMAP
3e3e
2a2a
3e3e
2a2a
3e3e
0000
3e3e
2a2a
3e3e
2aaa
3ebe
0ff8
0080
7fff
0000
0000
ENDCHAR
STARTCHAR ch-233
ENCODING 233
SWIDTH 1000 0
DWIDTH 16 0
BBX 16 16 0 -2
BITMAP
03fe
0020
27ff
25ad
25ad
7280
27df
2391
27df
2551
27df
7111
07d1
0111
0000
0000
ENDCHAR
STARTCHAR ch-235
ENCODING 235
SWIDTH 1000 0
DWIDTH 16 0
BBX 16 16 0 -2
BITMAP
0080
0080
0080
0080
0082
7fff
0080
0080
0080
0080
0080
0080
0088
1ffc
0000
0000
ENDCHAR
STARTCHAR ch-236
ENCODING 236
SWIDTH 1000 0
DWIDTH 16 0
BBX 16 16 0 -2
BITMAP
0008
003c
1fc0
0080
0080
0080
0082
7fff
0080
0080
0080
0080
0088
1ffc
0000
0000
ENDCHAR
STARTCHAR ch-239
ENCODING 239
SWIDTH 1000 0
DWIDTH 16 0
BBX 16 16 0 -2
BITMAP
0420
2420
2420
2420
3c20
0422
07ff
7c20
2420
2420
2420
2424
45fe
0400
0000
0000
ENDCHAR
STARTCHAR ch-244
ENCODING 244
SWIDTH 1000 0
DWIDTH 16 0
BBX 16 16 0 -2
BITMAP
0080
7fff
0080
0080
3ffe
0000
1ffc
1004
1004
1ffc
0000
1004
0808
7fff
0000
0000
ENDCHAR
STARTCHAR ch-249
ENCODING 249
SWIDTH 1000 0
DWIDTH 16 0
BBX 16 16 0 -2
BITMAP
0080
3ffe
0080
1ffc
3fff
2001
4ffa
0000
0ff8
0808
0ff8
0410
0222
7fff
0000
0000
ENDCHAR
STARTCHAR ch-250
ENCODING 250
SWIDTH 1000 0
DWIDTH 16 0
BBX 16 16 0 -2
BITMAP
0080
0080
3ffe
0080
1ffc
0000
7fff
4221
5e3d
1004
1004
1e3c
0220
7fff
0000
0000
ENDCHAR
STARTCHAR ch-252
ENCODING 252
SWIDTH 1000 0
DWIDTH 16 0
BBX 16 16 0 -2
BITMAP
0080
1ffc
0080
0ff8
0000
7fff
4001
5ffd
0140
1f7c
1004
1f7c
0140
3ffe
0000
0000
ENDCHAR
STARTCHAR ch-253
ENCODING 253
SWIDTH 1000 0
DWIDTH 16 0
BBX 16 16 0 -2
BITMAP
0080
3ffe
0080
1ffc
3ffe
0002
1ffe
0080
3ffe
7fff
0004
3eff
2224
3e0c
0000
0000
ENDCHAR
STARTCHAR ch-254
ENCODING 254
SWIDTH 1000 0
DWIDTH 16 0
BBX 16 16 0 -2
BITMAP
0800
087f
7f40
0840
0840
7f7f
0041
7f41
417f
7f40
4140
2240
147f
7f40
0000
0000
ENDCHAR
STARTCHAR ch-255
ENCODING 255
SWIDTH 1000 0
DWIDTH 16 0
BBX 16 16 0 -2
BITMAP
0082
1044
11ff
1028
10fe
7caa
10c6
10ba
1082
10fe
1c04
71ff
0024
000c
0000
0000
ENDCHAR
STARTCHAR ch-259
ENCODING 259
SWIDTH 1000 0
DWIDTH 16 0
BBX 16 16 0 -2
BITMAP
7ffe
1004
1008
1010
101f
1fc1
2841
4881
0501
0201
0501
18c2
0004
0038
0000
0000
ENDCHAR
STARTCHAR ch-262
ENCODING 262
SWIDTH 1000 0
DWIDTH 16 0
BBX 16 16 0 -2
BITMAP
0400
0ff8
1410
2220
01c0
7ebf
0080
1ffc
0080
1ffc
0080
3ffe
0080
0080
0000
0000
ENDCHAR
STARTCHAR ch-268
ENCODING 268
SWIDTH 1000 0
DWIDTH 16 0
BBX 16 16 0 -2
BITMAP
0080
0080
3ffe
0080
7fff
1004
2204
47f7
0810
1220
0140
0080
0140
3e3e
0000
0000
ENDCHAR
STARTCHAR ch-269
ENCODING 269
SWIDTH 1000 0
DWIDTH 16 0
BBX 16 16 0 -2
BITMAP
0804
0ffe
17f8
2408
47f8
0408
07f8
0200
07f8
0920
10c0
21a0
0618
1807
0000
0000
ENDCHAR
STARTCHAR ch-270
ENCODING 270
SWIDTH 1000 0
DWIDTH 16 0
BBX 16 16 0 -2
BITMAP
0888
0888
36b6
0080
1ffc
0080
7fff
0400
0ff8
3220
0140
0080
0360
3c1e
0000
0000
ENDCHAR
STARTCHAR ch-271
ENCODING 271
SWIDTH 1000 0
DWIDTH 16 0
BBX 16 16 0 -2
BITMAP
3ffe
0400
0ff8
0808
0ff8
0808
0ff8
0808
0ff8
0400
0ff8
1210
01e0
3e1e
0000
0000
ENDCHAR
STARTCHAR ch-274
ENCODING 274
SWIDTH 1000 0
DWIDTH 16 0
BBX 16 16 0 -2
BITMAP
7fff
1040
11f7
5df5
5117
51f4
5115
7df7
00a0
0f1e
01f0
02a0
0040
0fbc
0000
0000
ENDCHAR
STARTCHAR ch-276
ENCODING 276
SWIDTH 1000 0
DWIDTH 16 0
BBX 16 16 0 -2
BITMAP
0220
7fff
0080
0bee
2fea
2a2e
2be8
2e29
73e7
13e4
2622
09c0
0630
380e
0000
0000
ENDCHAR
STARTCHAR ch-277
ENCODING 277
SWIDTH 1000 0
DWIDTH 16 0
BBX 16 16 0 -2
BITMAP
0100
0104
03fe
0204
0404
0808
1208
2190
00a0
00c0
0100
0200
0c00
3000
0000
0000
ENDCHAR
STARTCHAR ch-278
ENCODING 278
SWIDTH 1000 0
DWIDTH 16 0
BBX 16 16 0 -2
BITMAP
0420
0420
0820
0fa0
10b0
10a8
3124
4923
0521
0220
0420
0820
1020
0020
0000
0000
ENDCHAR
STARTCHAR ch-279
ENCODING 279
SWIDTH 1000 0
DWIDTH 16 0
BBX 16 16 0 -2
BITMAP
0800
0802
0f7f
1122
2122
5122
1122
0922
052c
0220
0420
0821
7021
001f
0000
0000
ENDCHAR
STARTCHAR ch-281
ENCODING 281
SWIDTH 1000 0
DWIDTH 16 0
BBX 16 16 0 -2
BITMAP
0008
1ffc
1008
17e8
1108
13e8
1228
1628
1948
1088
1109
2209
2405
4002
0000
0000
ENDCHAR
STARTCHAR ch-282
ENCODING 282
SWIDTH 1000 0
DWIDTH 16 0
BBX 16 16 0 -2
BITMAP
0100
03f8
0410
0c20
12c0
0140
0644
38fe
0104
0608
1910
00e0
0700
3800
0000
0000
ENDCHAR
STARTCHAR ch-284
ENCODING 284
SWIDTH 1000 0
DWIDTH 16 0
BBX 16 16 0 -2
BITMAP
0100
0082
7fff
0440
087c
0884
1944
2b28
4c90
0860
0860
0898
0907
0e02
0000
0000
ENDCHAR
STARTCHAR ch-288
ENCODING 288
SWIDTH 1000 0
DWIDTH 16 0
BBX 16 16 0 -2
BITMAP
1010
1f21
217f
5281
0c01
107d
6845
0845
1f45
217d
5245
0c01
0801
700e
0000
0000
ENDCHAR
STARTCHAR ch-290
ENCODING 290
SWIDTH 1000 0
DWIDTH 16 0
BBX 16 16 0 -2
BITMAP
0410
7fff
0410
3ffe
2222
3ffe
0000
7fff
4201
47f9
0a08
0110
00a0
0fc0
0000
0000
ENDCHAR
STARTCHAR ch-292
ENCODING 292
SWIDTH 1000 0
DWIDTH 16 0
BBX 16 16 0 -2
BITMAP
07f8
1930
03c0
3fff
2001
4ffa
0080
0ff8
0888
0ff8
0888
0ff8
0410
1808
0000
0000
ENDCHAR
STARTCHAR ch-293
ENCODING 293
SWIDTH 1000 0
DWIDTH 16 0
BBX 16 16 0 -2
BITMAP
3f90
249e
24a2
3fd4
2488
2490
3fb0
045f
7f91
0e12
152c
2488
4410
0460
0000
0000
ENDCHAR
STARTCHAR ch-295
ENCODING 295
SWIDTH 1000 0
DWIDTH 16 0
BBX 16 16 0 -2
BITMAP
0080
0080
0080
0082
7fff
0080
0080
0140
0120
0220
0210
0408
0807
3002
0000
0000
ENDCHAR
STARTCHAR ch-297
ENCODING 297
SWIDTH 1000 0
DWIDTH 16 0
BBX 16 16 0 -2
BITMAP
0004
3ffe
0080
0080
0082
7fff
0080
0140
0220
0220
0410
0808
1007
6002
0000
0000
ENDCHAR
STARTCHAR ch-298
ENCODING 298
SWIDTH 1000 0
DWIDTH 16 0
BBX 16 16 0 -2
BITMAP
0080
0080
0080
0082
7fff
0080
0080
0140
0140
0220
0320
0498
1887
6002
0000
0000
ENDCHAR
STARTCHAR ch-299
ENCODING 299
SWIDTH 1000 0
DWIDTH 16 0
BBX 16 16 0 -2
BITMAP
0080
0084
3ffe
0080
0082
7fff
0080
0140
0140
0220
0220
0418
0807
3002
0000
0000
ENDCHAR
STARTCHAR ch-300
ENCODING 300
SWIDTH 1000 0
DWIDTH 16 0
BBX 16 16 0 -2
BITMAP
0080
0080
1ff8
0088
0088
0088
7fff
0080
0140
0220
0410
0808
1004
6003
0000
0000
ENDCHAR
STARTCHAR ch-301
ENCODING 301
SWIDTH 1000 0
DWIDTH 16 0
BBX 16 16 0 -2
BITMAP
0008
00fc
1f80
0080
0080
0082
7fff
0080
0140
0220
0210
0408
1807
6002
0000
0000
ENDCHAR
STARTCHAR ch-302
ENCODING 302
SWIDTH 1000 0
DWIDTH 16 0
BBX 16 16 0 -2
BITMAP
0080
0088
0ffc
0888
0888
0888
0888
7fff
0080
0140
0220
0418
1807
6002
0000
0000
ENDCHAR
STARTCHAR ch-303
ENCODING 303
SWIDTH 1000 0
DWIDTH 16 0
BBX 16 16 0 -2
BITMAP
0100
0102
7fff
0240
0220
0518
1907
6102
0ff8
0108
0208
0408
0850
3020
0000
0000
ENDCHAR
STARTCHAR ch-305
ENCODING 305
SWIDTH 1000 0
DWIDTH 16 0
BBX 16 16 0 -2
BITMAP
0080
0880
0888
0ffc
1080
2080
0082
7fff
0080
0140
0220
0418
0807
3002
0000
0000
ENDCHAR
STARTCHAR ch-311
ENCODING 311
SWIDTH 1000 0
DWIDTH 16 0
BBX 16 16 0 -2
BITMAP
0080
0082
7fff
0080
1ff8
0088
1ff8
1080
1ffe
0082
014c
0620
1818
6007
0000
0000
ENDCHAR
STARTCHAR ch-312
ENCODING 312
SWIDTH 1000 0
DWIDTH 16 0
BBX 16 16 0 -2
BITMAP
0080
0084
3ffe
0140
0220
0dd8
7007
1ffc
0200
07f0
0010
0210
0120
00c0
0000
0000
ENDCHAR
STARTCHAR ch-316
ENCODING 316
SWIDTH 1000 0
DWIDTH 16 0
BBX 16 16 0 -2
BITMAP
0080
0082
7fff
0140
0220
0418
1807
6492
0490
0490
0490
0890
1090
0010
0000
0000
ENDCHAR
STARTCHAR ch-318
ENCODING 318
SWIDTH 1000 0
DWIDTH 16 0
BBX 16 16 0 -2
BITMAP
0080
0084
3ffe
0080
0888
0888
1494
62a3
0080
0140
0220
0418
1807
6002
0000
0000
ENDCHAR
STARTCHAR ch-320
ENCODING 320
SWIDTH 1000 0
DWIDTH 16 0
BBX 16 16 0 -2
BITMAP
7fff
0040
0080
0188
0284
7c83
0000
0080
7fff
0140
0220
0410
0808
7007
0000
0000
ENDCHAR
STARTCHAR ch-324
ENCODING 324
SWIDTH 1000 0
DWIDTH 16 0
BBX 16 16 0 -2
BITMAP
0080
0084
3ffe
0140
0630
188f
6ffa
0888
0ff8
0888
0ff8
0888
0080
007f
0000
0000
ENDCHAR
STARTCHAR ch-325
ENCODING 325
SWIDTH 1000 0
DWIDTH 16 0
BBX 16 16 0 -2
BITMAP
0080
0100
7fff
0400
0808
1204
2402
5afd
1244
1244
3e44
0258
0440
0840
0000
0000
ENDCHAR
STARTCHAR ch-327
ENCODING 327
SWIDTH 1000 0
DWIDTH 16 0
BBX 16 16 0 -2
BITMAP
0080
0088
1ffc
0140
0220
0412
7fff
0008
0fc8
0848
0848
0fc8
0028
0010
0000
0000
ENDCHAR
STARTCHAR ch-328
ENCODING 328
SWIDTH 1000 0
DWIDTH 16 0
BBX 16 16 0 -2
BITMAP
0100
0104
3ffe
0410
0808
1027
67f2
0000
1ffc
0080
0490
088c
3084
0080
0000
0000
ENDCHAR
STARTCHAR ch-329
ENCODING 329
SWIDTH 1000 0
DWIDTH 16 0
BBX 16 16 0 -2
BITMAP
0080
0084
3ffe
0080
1ffc
0100
7fff
0490
188f
67f2
0080
0ff8
0080
0080
0000
0000
ENDCHAR
STARTCHAR ch-330
ENCODING 330
SWIDTH 1000 0
DWIDTH 16 0
BBX 16 16 0 -2
BITMAP
2080
27f0
2080
2ff8
2080
27f0
2080
2ff8
2000
3ffe
0080
3ffe
0220
0410
0000
0000
ENDCHAR
STARTCHAR ch-334
ENCODING 334
SWIDTH 1000 0
DWIDTH 16 0
BBX 16 16 0 -2
BITMAP
0100
7fff
0490
0888
17f7
6082
0088
1ffc
0080
0080
0ff8
0080
0084
3ffe
0000
0000
ENDCHAR
STARTCHAR ch-335
ENCODING 335
SWIDTH 1000 0
DWIDTH 16 0
BBX 16 16 0 -2
BITMAP
0080
3ffe
0080
1ffc
0100
7fff
0418
1be7
6082
0ff8
0080
0160
0218
1c06
0000
0000
ENDCHAR
STARTCHAR ch-336
ENCODING 336
SWIDTH 1000 0
DWIDTH 16 0
BBX 16 16 0 -2
BITMAP
0400
0ff0
1020
6044
1ffe
1144
1244
1c7c
1004
1084
7fff
0220
0c18
7007
0000
0000
ENDCHAR
STARTCHAR ch-337
ENCODING 337
SWIDTH 1000 0
DWIDTH 16 0
BBX 16 16 0 -2
BITMAP
0400
3fbf
0412
1f12
0412
3fa2
042a
04c4
0080
7fff
0140
0230
0c0e
3004
0000
0000
ENDCHAR
STARTCHAR ch-339
ENCODING 339
SWIDTH 1000 0
DWIDTH 16 0
BBX 16 16 0 -2
BITMAP
0080
7fff
0410
0908
13e4
2442
4a81
0120
067c
0088
0150
0020
0040
0f80
0000
0000
ENDCHAR
STARTCHAR ch-340
ENCODING 340
SWIDTH 1000 0
DWIDTH 16 0
BBX 16 16 0 -2
BITMAP
0080
3ffe
0140
02a0
0498
1be7
6082
0490
0410
3ffe
0410
0410
0810
1010
0000
0000
ENDCHAR
STARTCHAR ch-341
ENCODING 341
SWIDTH 1000 0
DWIDTH 16 0
BBX 16 16 0 -2
BITMAP
0100
0084
3ffe
0a28
1226
2222
0460
0880
0082
7fff
0220
0418
1807
6002
0000
0000
ENDCHAR
STARTCHAR ch-343
ENCODING 343
SWIDTH 1000 0
DWIDTH 16 0
BBX 16 16 0 -2
BITMAP
0100
7fff
0210
07f0
0c08
17f7
6402
07f0
0402
7fff
0200
0410
1ff8
0404
0000
0000
ENDCHAR
STARTCHAR ch-344
ENCODING 344
SWIDTH 1000 0
DWIDTH 16 0
BBX 16 16 0 -2
BITMAP
0210
1210
1212
1fff
0210
3e10
12fe
2200
0080
7fff
0140
0220
0c18
3007
0000
0000
ENDCHAR
STARTCHAR ch-346
ENCODING 346
SWIDTH 1000 0
DWIDTH 16 0
BBX 16 16 0 -2
BITMAP
3fe4
1104
0888
0930
0240
0fc0
0100
0210
0ff8
0080
7fff
0140
0630
380e
0000
0000
ENDCHAR
STARTCHAR ch-348
ENCODING 348
SWIDTH 1000 0
DWIDTH 16 0
BBX 16 16 0 -2
BITMAP
0220
7e3f
0220
7e3f
0220
7e3f
0420
08a0
0080
7fff
0140
0220
0410
780f
0000
0000
ENDCHAR
STARTCHAR ch-352
ENCODING 352
SWIDTH 1000 0
DWIDTH 16 0
BBX 16 16 0 -2
BITMAP
0410
7fff
0140
1ffc
1144
1e7c
1ffc
1004
1ffc
0080
7fff
0140
023c
1c08
0000
0000
ENDCHAR
STARTCHAR ch-353
ENCODING 353
SWIDTH 1000 0
DWIDTH 16 0
BBX 16 16 0 -2
BITMAP
3ffe
0200
0ff8
0808
0ff8
0ff8
0808
0ff8
0200
7fff
0a28
1224
2222
0420
0000
0000
ENDCHAR
STARTCHAR ch-354
ENCODING 354
SWIDTH 1000 0
DWIDTH 16 0
BBX 16 16 0 -2
BITMAP
0100
7ffe
0510
192f
67f2
0140
3fff
0200
07f8
1c08
67f8
0408
07f8
0408
0000
0000
ENDCHAR
STARTCHAR ch-359
ENCODING 359
SWIDTH 1000 0
DWIDTH 16 0
BBX 16 16 0 -2
BITMAP
0800
1ffc
3014
57e4
1494
12a4
1ffc
11c4
12a4
1494
7fff
0410
0808
7007
0000
0000
ENDCHAR
STARTCHAR ch-361
ENCODING 361
SWIDTH 1000 0
DWIDTH 16 0
BBX 16 16 0 -2
BITMAP
0080
7fff
0410
0808
1ffc
3002
51f1
1110
11f0
17bc
14a4
17bc
1000
1ffe
0000
0000
ENDCHAR
STARTCHAR ch-362
ENCODING 362
SWIDTH 1000 0
DWIDTH 16 0
BBX 16 16 0 -2
BITMAP
0100
7fff
0530
0bf8
1624
2bfa
4221
03f8
0220
03f8
0008
7fff
0208
0018
0000
0000
ENDCHAR
STARTCHAR ch-363
ENCODING 363
SWIDTH 1000 0
DWIDTH 16 0
BBX 16 16 0 -2
BITMAP
0080
7fff
0410
0808
14a4
24a6
47bd
3404
07fc
6404
07bc
14a4
64a4
28a4
0000
0000
ENDCHAR
STARTCHAR ch-365
ENCODING 365
SWIDTH 1000 0
DWIDTH 16 0
BBX 16 16 0 -2
BITMAP
0080
3ffe
0080
3ebe
1090
3ebe
22a2
3ebe
22a2
3ebe
0140
0220
0410
780f
0000
0000
ENDCHAR
STARTCHAR ch-366
ENCODING 366
SWIDTH 1000 0
DWIDTH 16 0
BBX 16 16 0 -2
BITMAP
0080
7fff
0220
0550
0bf8
1ffc
27fa
0440
07f8
1ffc
1084
1ffc
1084
1ffc
0000
0000
ENDCHAR
STARTCHAR ch-368
ENCODING 368
SWIDTH 1000 0
DWIDTH 16 0
BBX 16 16 0 -2
BITMAP
1ffc
1224
1224
1ffc
0000
7f7f
5555
5555
7f7f
0080
7fff
0410
0808
7007
0000
0000
ENDCHAR
STARTCHAR ch-369
ENCODING 369
SWIDTH 1000 0
DWIDTH 16 0
BBX 16 16 0 -2
BITMAP
0882
13e4
2409
79de
1004
25c9
7c1f
01c0
5555
55d5
0080
3ffe
0410
0808
0000
0000
ENDCHAR
STARTCHAR ch-370
ENCODING 370
SWIDTH 1000 0
DWIDTH 16 0
BBX 16 16 0 -2
BITMAP
0877
7f55
2277
4980
3f7f
0a49
7f7f
1949
3e7f
5208
1e7f
1208
1e08
1208
0000
0000
ENDCHAR
STARTCHAR ch-371
ENCODING 371
SWIDTH 1000 0
DWIDTH 16 0
BBX 16 16 0 -2
BITMAP
0080
0080
0100
0102
7fff
0210
0410
0810
0620
0140
00c0
0330
0c0c
3004
0000
0000
ENDCHAR
STARTCHAR ch-372
ENCODING 372
SWIDTH 1000 0
DWIDTH 16 0
BBX 16 16 0 -2
BITMAP
0800
08fe
0802
7f42
1144
1144
2124
1228
0a28
0410
0a28
1144
2087
0302
0000
0000
ENDCHAR
STARTCHAR ch-374
ENCODING 374
SWIDTH 1000 0
DWIDTH 16 0
BBX 16 16 0 -2
BITMAP
0804
0bfe
0844
7e44
1248
1248
125e
2482
1482
0882
1502
2502
4214
0408
0000
0000
ENDCHAR
STARTCHAR ch-375
ENCODING 375
SWIDTH 1000 0
DWIDTH 16 0
BBX 16 16 0 -2
BITMAP
2000
2006
2278
7f08
2208
220a
22ff
2208
2208
1408
0808
1408
2208
4108
0000
0000
ENDCHAR
STARTCHAR ch-376
ENCODING 376
SWIDTH 1000 0
DWIDTH 16 0
BBX 16 16 0 -2
BITMAP
0804
08fe
0810
7e10
1212
13ff
1210
2210
1410
0810
1410
2210
4210
0010
0000
0000
ENDCHAR
STARTCHAR ch-377
ENCODING 377
SWIDTH 1000 0
DWIDTH 16 0
BBX 16 16 0 -2
BITMAP
0810
0810
0810
7e92
129f
12f2
1392
2292
1494
0890
0890
1491
2281
427f
0000
0000
ENDCHAR
STARTCHAR ch-379
ENCODING 379
SWIDTH 1000 0
DWIDTH 16 0
BBX 16 16 0 -2
BITMAP
2020
2020
2222
2222
7f7f
2222
2222
2222
2222
1414
0808
1414
2222
4141
0000
0000
ENDCHAR
STARTCHAR ch-380
ENCODING 380
SWIDTH 1000 0
DWIDTH 16 0
BBX 16 16 0 -2
BITMAP
2003
200c
2270
2210
7f10
2212
227f
2210
2210
1410
0810
1411
2211
410f
0000
0000
ENDCHAR
STARTCHAR ch-381
ENCODING 381
SWIDTH 1000 0
DWIDTH 16 0
BBX 16 16 0 -2
BITMAP
08fe
0802
0804
7e08
1210
1212
13ff
2210
1410
0810
1410
2210
4250
0020
0000
0000
ENDCHAR
STARTCHAR ch-382
ENCODING 382
SWIDTH 1000 0
DWIDTH 16 0
BBX 16 16 0 -2
BITMAP
2000
2008
2208
2208
7f08
2249
2249
2249
2249
1449
0849
1449
227f
4141
0000
0000
ENDCHAR
STARTCHAR ch-383
ENCODING 383
SWIDTH 1000 0
DWIDTH 16 0
BBX 16 16 0 -2
BITMAP
1020
1020
1024
7eff
1224
1224
1a24
1618
1218
1224
1242
2281
4200
01ff
0000
0000
ENDCHAR
STARTCHAR ch-384
ENCODING 384
SWIDTH 1000 0
DWIDTH 16 0
BBX 16 16 0 -2
BITMAP
0040
7e42
0242
02ff
0242
7e42
4242
4042
4024
4218
4418
4824
7042
0081
0000
0000
ENDCHAR
STARTCHAR ch-385
ENCODING 385
SWIDTH 1000 0
DWIDTH 16 0
BBX 16 16 0 -2
BITMAP
0840
0842
087f
7e82
1302
1242
1222
2222
1402
0802
1402
2222
4214
0008
0000
0000
ENDCHAR
STARTCHAR ch-386
ENCODING 386
SWIDTH 1000 0
DWIDTH 16 0
BBX 16 16 0 -2
BITMAP
0800
0800
0802
7f7f
1142
1142
1142
2142
1242
0a42
0442
0a7e
1142
2000
0000
0000
ENDCHAR
STARTCHAR ch-387
ENCODING 387
SWIDTH 1000 0
DWIDTH 16 0
BBX 16 16 0 -2
BITMAP
1000
1004
10fe
1004
7e04
1204
12fc
1284
2280
1480
0880
1481
2281
427f
0000
0000
ENDCHAR
STARTCHAR ch-388
ENCODING 388
SWIDTH 1000 0
DWIDTH 16 0
BBX 16 16 0 -2
BITMAP
0100
0084
3ffe
0800
0810
0ff8
0100
7fff
0210
0410
0220
01c0
0230
1c0c
0000
0000
ENDCHAR
STARTCHAR ch-389
ENCODING 389
SWIDTH 1000 0
DWIDTH 16 0
BBX 16 16 0 -2
BITMAP
2000
2200
2202
7f7f
2208
2208
2208
2208
2208
1408
0808
140a
227f
4100
0000
0000
ENDCHAR
STARTCHAR ch-394
ENCODING 394
SWIDTH 1000 0
DWIDTH 16 0
BBX 16 16 0 -2
BITMAP
0804
081e
08f0
7e10
1210
1212
12ff
2210
1410
0810
1410
2214
42fe
0000
0000
0000
ENDCHAR
STARTCHAR ch-397
ENCODING 397
SWIDTH 1000 0
DWIDTH 16 0
BBX 16 16 0 -2
BITMAP
0802
09ff
0844
7e44
1244
1244
13ff
2244
1444
0844
1444
2244
4084
0104
0000
0000
ENDCHAR
STARTCHAR ch-398
ENCODING 398
SWIDTH 1000 0
DWIDTH 16 0
BBX 16 16 0 -2
BITMAP
2010
2228
2244
7e82
2301
2244
2244
2244
2244
1444
0844
1484
2304
4204
0000
0000
ENDCHAR
STARTCHAR ch-399
ENCODING 399
SWIDTH 1000 0
DWIDTH 16 0
BBX 16 16 0 -2
BITMAP
2008
2208
227f
7f22
2222
2222
2222
2222
2214
1408
0814
1422
2241
4141
0000
0000
ENDCHAR
STARTCHAR ch-400
ENCODING 400
SWIDTH 1000 0
DWIDTH 16 0
BBX 16 16 0 -2
BITMAP
2000
2018
2224
2242
7f81
2300
2208
2208
2210
2210
1424
0842
14ff
6301
0000
0000
ENDCHAR
STARTCHAR ch-402
ENCODING 402
SWIDTH 1000 0
DWIDTH 16 0
BBX 16 16 0 -2
BITMAP
080c
0830
08c2
7eff
1282
1282
12fe
2282
1480
0880
1500
2300
4200
0400
0000
0000
ENDCHAR
STARTCHAR ch-403
ENCODING 403
SWIDTH 1000 0
DWIDTH 16 0
BBX 16 16 0 -2
BITMAP
0810
0812
09ff
7e10
1210
12fe
1282
2244
1444
0828
1410
2228
4247
0182
0000
0000
ENDCHAR
STARTCHAR ch-406
ENCODING 406
SWIDTH 1000 0
DWIDTH 16 0
BBX 16 16 0 -2
BITMAP
0804
080e
08f0
7e10
1210
1212
13ff
2210
1428
0828
1444
2284
4103
0202
0000
0000
ENDCHAR
STARTCHAR ch-407
ENCODING 407
SWIDTH 1000 0
DWIDTH 16 0
BBX 16 16 0 -2
BITMAP
0820
0850
0850
7e88
1287
137a
1200
22fc
1404
0808
1408
2210
4220
0040
0000
0000
ENDCHAR
STARTCHAR ch-408
ENCODING 408
SWIDTH 1000 0
DWIDTH 16 0
BBX 16 16 0 -2
BITMAP
2000
227e
2200
7f00
2200
22ff
2208
2208
2210
1420
0842
1482
22ff
4101
0000
0000
ENDCHAR
STARTCHAR ch-409
ENCODING 409
SWIDTH 1000 0
DWIDTH 16 0
BBX 16 16 0 -2
BITMAP
0810
0810
0810
7e54
1253
1251
1290
2212
1414
0808
1410
2220
4040
0180
0000
0000
ENDCHAR
STARTCHAR ch-413
ENCODING 413
SWIDTH 1000 0
DWIDTH 16 0
BBX 16 16 0 -2
BITMAP
0440
2440
2440
2442
27ff
3c44
0444
7c84
2488
2450
2420
2458
2486
4502
0000
0000
ENDCHAR
STARTCHAR ch-414
ENCODING 414
SWIDTH 1000 0
DWIDTH 16 0
BBX 16 16 0 -2
BITMAP
0804
09fe
0844
0844
7e44
1244
1244
13ff
2244
1444
0844
1444
2244
43ff
0000
0000
ENDCHAR
STARTCHAR ch-416
ENCODING 416
SWIDTH 1000 0
DWIDTH 16 0
BBX 16 16 0 -2
BITMAP
2008
2208
2208
7f7f
2249
2249
2249
2255
2263
1441
0841
1441
2245
4142
0000
0000
ENDCHAR
STARTCHAR ch-417
ENCODING 417
SWIDTH 1000 0
DWIDTH 16 0
BBX 16 16 0 -2
BITMAP
2001
227e
2240
7f40
227f
2244
2244
2244
2244
1444
0844
1484
2204
4104
0000
0000
ENDCHAR
STARTCHAR ch-418
ENCODING 418
SWIDTH 1000 0
DWIDTH 16 0
BBX 16 16 0 -2
BITMAP
0010
2028
2244
2282
7f01
22fe
2212
2212
2212
2212
1422
0842
148a
6204
0000
0000
ENDCHAR
STARTCHAR ch-419
ENCODING 419
SWIDTH 1000 0
DWIDTH 16 0
BBX 16 16 0 -2
BITMAP
0890
0890
0890
0892
7e96
12f8
1290
1290
2290
1490
0890
14b1
22d1
428f
0000
0000
ENDCHAR
STARTCHAR ch-420
ENCODING 420
SWIDTH 1000 0
DWIDTH 16 0
BBX 16 16 0 -2
BITMAP
0800
08fc
0804
0828
7e10
13ff
1211
1212
2210
1410
0810
1410
4250
0020
0000
0000
ENDCHAR
STARTCHAR ch-421
ENCODING 421
SWIDTH 1000 0
DWIDTH 16 0
BBX 16 16 0 -2
BITMAP
003c
1fc0
0104
088c
0690
0220
0104
7fff
0408
0c10
0320
00c0
0330
0c08
0000
0000
ENDCHAR
STARTCHAR ch-422
ENCODING 422
SWIDTH 1000 0
DWIDTH 16 0
BBX 16 16 0 -2
BITMAP
2008
2209
220e
7f78
2208
2208
227f
2208
2208
147f
0808
1408
2208
4108
0000
0000
ENDCHAR
STARTCHAR ch-423
ENCODING 423
SWIDTH 1000 0
DWIDTH 16 0
BBX 16 16 0 -2
BITMAP
2000
227e
2200
7f80
2200
22ff
2224
2224
2224
1424
0824
1425
2245
4187
0000
0000
ENDCHAR
STARTCHAR ch-424
ENCODING 424
SWIDTH 1000 0
DWIDTH 16 0
BBX 16 16 0 -2
BITMAP
0840
0820
0802
7fff
1240
1244
127e
2244
1444
0844
1484
2284
4128
0210
0000
0000
ENDCHAR
STARTCHAR ch-430
ENCODING 430
SWIDTH 1000 0
DWIDTH 16 0
BBX 16 16 0 -2
BITMAP
0802
08ff
0882
7e82
12fe
1280
12a0
24a0
14be
0920
1521
2321
421f
0400
0000
0000
ENDCHAR
STARTCHAR ch-431
ENCODING 431
SWIDTH 1000 0
DWIDTH 16 0
BBX 16 16 0 -2
BITMAP
0810
0810
0812
7eff
1292
1292
1292
22fe
1492
0892
1492
2292
42fe
0082
0000
0000
ENDCHAR
STARTCHAR ch-433
ENCODING 433
SWIDTH 1000 0
DWIDTH 16 0
BBX 16 16 0 -2
BITMAP
207f
2211
2211
7f11
2211
2221
2246
2200
227f
1441
0841
1441
227f
4141
0000
0000
ENDCHAR
STARTCHAR ch-434
ENCODING 434
SWIDTH 1000 0
DWIDTH 16 0
BBX 16 16 0 -2
BITMAP
0804
08fe
0884
7e84
1284
12fc
1284
2284
1484
08fc
1400
2202
43ff
0000
0000
0000
ENDCHAR
STARTCHAR ch-435
ENCODING 435
SWIDTH 1000 0
DWIDTH 16 0
BBX 16 16 0 -2
BITMAP
2040
2040
24ff
2511
7e11
2412
2438
2454
2492
1511
0810
1410
2250
4120
0000
0000
ENDCHAR
STARTCHAR ch-436
ENCODING 436
SWIDTH 1000 0
DWIDTH 16 0
BBX 16 16 0 -2
BITMAP
0800
1f7e
6222
1422
083c
1021
603f
0410
7fff
0220
0140
0080
0140
3e3e
0000
0000
ENDCHAR
STARTCHAR ch-437
ENCODING 437
SWIDTH 1000 0
DWIDTH 16 0
BBX 16 16 0 -2
BITMAP
2010
2008
2200
227f
7f08
2208
2208
227f
2208
1408
0808
1408
227f
4100
0000
0000
ENDCHAR
STARTCHAR ch-438
ENCODING 438
SWIDTH 1000 0
DWIDTH 16 0
BBX 16 16 0 -2
BITMAP
2010
2010
2810
29ff
7c10
2822
2844
28f8
2810
2820
1044
2882
45ff
0001
0000
0000
ENDCHAR
STARTCHAR ch-441
ENCODING 441
SWIDTH 1000 0
DWIDTH 16 0
BBX 16 16 0 -2
BITMAP
1020
1024
11fe
7c20
2422
27ff
2420
4470
2868
10a4
2927
2622
4420
0020
0000
0000
ENDCHAR
STARTCHAR ch-442
ENCODING 442
SWIDTH 1000 0
DWIDTH 16 0
BBX 16 16 0 -2
BITMAP
2010
2010
29ff
2810
7c10
28fe
2810
2838
2854
2892
2911
1010
2810
4410
0000
0000
ENDCHAR
STARTCHAR ch-443
ENCODING 443
SWIDTH 1000 0
DWIDTH 16 0
BBX 16 16 0 -2
BITMAP
0080
3ffe
1ff8
0088
7fff
0088
1ff8
0180
7fff
0410
0320
00c0
0330
0c08
0000
0000
ENDCHAR
STARTCHAR ch-444
ENCODING 444
SWIDTH 1000 0
DWIDTH 16 0
BBX 16 16 0 -2
BITMAP
2020
2010
2808
2840
7c40
2942
2949
2949
2850
2860
1040
28c2
4542
443e
0000
0000
ENDCHAR
STARTCHAR ch-445
ENCODING 445
SWIDTH 1000 0
DWIDTH 16 0
BBX 16 16 0 -2
BITMAP
2008
2208
227f
7f49
2249
227f
2249
2249
227f
1449
0808
1408
2208
4108
0000
0000
ENDCHAR
STARTCHAR ch-446
ENCODING 446
SWIDTH 1000 0
DWIDTH 16 0
BBX 16 16 0 -2
BITMAP
0100
3ffe
0410
0222
7fff
0080
0104
3ffe
0210
0410
0320
00c0
0338
1c04
0000
0000
ENDCHAR
STARTCHAR ch-448
ENCODING 448
SWIDTH 1000 0
DWIDTH 16 0
BBX 16 16 0 -2
BITMAP
2001
220e
2278
7f08
2208
227f
2208
2208
221c
142a
0849
1408
2208
4108
0000
0000
ENDCHAR
STARTCHAR ch-449
ENCODING 449
SWIDTH 1000 0
DWIDTH 16 0
BBX 16 16 0 -2
BITMAP
2040
2040
227f
2241
7f81
2201
2279
2249
2249
1479
0849
1401
2202
410c
0000
0000
ENDCHAR
STARTCHAR ch-451
ENCODING 451
SWIDTH 1000 0
DWIDTH 16 0
BBX 16 16 0 -2
BITMAP
2002
21ff
2810
2810
7c10
2810
2890
289f
2890
2890
1090
2890
4490
45ff
0000
0000
ENDCHAR
STARTCHAR ch-453
ENCODING 453
SWIDTH 1000 0
DWIDTH 16 0
BBX 16 16 0 -2
BITMAP
2010
2111
2492
2454
7efe
2410
2410
2410
25ff
1410
0810
1410
2210
4110
0000
0000
ENDCHAR
STARTCHAR ch-454
ENCODING 454
SWIDTH 1000 0
DWIDTH 16 0
BBX 16 16 0 -2
BITMAP
0802
087f
0852
7e4a
1242
1242
13ff
2252
144a
0882
14ff
2202
4214
0008
0000
0000
ENDCHAR
STARTCHAR ch-455
ENCODING 455
SWIDTH 1000 0
DWIDTH 16 0
BBX 16 16 0 -2
BITMAP
0408
0808
73ff
1008
1108
10c8
1418
0410
7fff
0410
0220
01c0
0220
7c1f
0000
0000
ENDCHAR
STARTCHAR ch-456
ENCODING 456
SWIDTH 1000 0
DWIDTH 16 0
BBX 16 16 0 -2
BITMAP
2010
2028
2844
2882
7d21
2810
2800
28fe
2802
2802
1004
2848
4430
0010
0000
0000
ENDCHAR
STARTCHAR ch-458
ENCODING 458
SWIDTH 1000 0
DWIDTH 16 0
BBX 16 16 0 -2
BITMAP
0810
081e
08f0
7e90
1290
1290
12ff
1211
2231
1435
0852
1490
2310
4010
0000
0000
ENDCHAR
STARTCHAR ch-459
ENCODING 459
SWIDTH 1000 0
DWIDTH 16 0
BBX 16 16 0 -2
BITMAP
0820
0820
0840
7e44
1282
13ff
1201
1200
24fe
1482
1c82
2282
42fe
0082
0000
0000
ENDCHAR
STARTCHAR ch-460
ENCODING 460
SWIDTH 1000 0
DWIDTH 16 0
BBX 16 16 0 -2
BITMAP
2010
2010
28fe
2892
7c92
28fe
2892
2892
29ff
2882
2882
1082
288a
4484
0000
0000
ENDCHAR
STARTCHAR ch-461
ENCODING 461
SWIDTH 1000 0
DWIDTH 16 0
BBX 16 16 0 -2
BITMAP
0802
08ff
08aa
7eaa
12aa
12aa
13ff
22aa
14aa
08aa
14aa
22aa
4176
0222
0000
0000
ENDCHAR
STARTCHAR ch-462
ENCODING 462
SWIDTH 1000 0
DWIDTH 16 0
BBX 16 16 0 -2
BITMAP
2010
2010
2810
28fe
7c92
2892
2892
29ff
2810
2828
2844
1082
2901
4501
0000
0000
ENDCHAR
STARTCHAR ch-463
ENCODING 463
SWIDTH 1000 0
DWIDTH 16 0
BBX 16 16 0 -2
BITMAP
2022
2022
2222
2222
7f7f
2222
2222
2222
223e
1422
0822
1422
223e
4122
0000
0000
ENDCHAR
STARTCHAR ch-464
ENCODING 464
SWIDTH 1000 0
DWIDTH 16 0
BBX 16 16 0 -2
BITMAP
0804
08fe
0884
0884
7e84
12fc
1284
1284
22fc
1484
0884
1484
2284
43ff
0000
0000
ENDCHAR
STARTCHAR ch-465
ENCODING 465
SWIDTH 1000 0
DWIDTH 16 0
BBX 16 16 0 -2
BITMAP
0810
0810
0812
09ff
7e10
1212
22ff
1282
0c82
0882
1482
2282
40fe
0082
0000
0000
ENDCHAR
STARTCHAR ch-466
ENCODING 466
SWIDTH 1000 0
DWIDTH 16 0
BBX 16 16 0 -2
BITMAP
0800
0804
0884
7e84
12a4
1294
1294
2284
14a4
08c4
1488
2214
4223
0041
0000
0000
ENDCHAR
STARTCHAR ch-467
ENCODING 467
SWIDTH 1000 0
DWIDTH 16 0
BBX 16 16 0 -2
BITMAP
0810
0890
0892
7eff
1290
1310
1210
1210
22fe
1410
0810
1410
2212
43ff
0000
0000
ENDCHAR
STARTCHAR ch-468
ENCODING 468
SWIDTH 1000 0
DWIDTH 16 0
BBX 16 16 0 -2
BITMAP
0018
1fe0
0080
0082
7fff
0c98
3086
0100
7fff
0210
0220
01c0
0630
1808
0000
0000
ENDCHAR
STARTCHAR ch-470
ENCODING 470
SWIDTH 1000 0
DWIDTH 16 0
BBX 16 16 0 -2
BITMAP
2000
227f
2240
7f40
2240
227f
2241
2241
227f
1440
0840
1440
227f
4140
0000
0000
ENDCHAR
STARTCHAR ch-472
ENCODING 472
SWIDTH 1000 0
DWIDTH 16 0
BBX 16 16 0 -2
BITMAP
0882
0844
09ff
7e44
1244
1244
13ff
2244
1444
0844
1444
2244
4084
0104
0000
0000
ENDCHAR
STARTCHAR ch-474
ENCODING 474
SWIDTH 1000 0
DWIDTH 16 0
BBX 16 16 0 -2
BITMAP
0848
0848
0949
7eca
12cc
1248
124c
22ca
154a
0848
1489
2289
4109
0207
0000
0000
ENDCHAR
STARTCHAR ch-475
ENCODING 475
SWIDTH 1000 0
DWIDTH 16 0
BBX 16 16 0 -2
BITMAP
21ff
2101
2901
297d
7d01
297d
2945
2945
297d
2945
2901
1101
2905
4502
0000
0000
ENDCHAR
STARTCHAR ch-476
ENCODING 476
SWIDTH 1000 0
DWIDTH 16 0
BBX 16 16 0 -2
BITMAP
0410
3ffe
0080
1ffc
0080
3ffe
0100
7fff
0210
0410
0360
00c0
0330
1c0c
0000
0000
ENDCHAR
STARTCHAR ch-477
ENCODING 477
SWIDTH 1000 0
DWIDTH 16 0
BBX 16 16 0 -2
BITMAP
0810
0894
08fe
7e90
1310
1212
13ff
2238
1454
0854
1492
2311
4210
0010
0000
0000
ENDCHAR
STARTCHAR ch-478
ENCODING 478
SWIDTH 1000 0
DWIDTH 16 0
BBX 16 16 0 -2
BITMAP
2008
2008
227f
2208
7f08
2208
227f
2200
227f
1441
0841
1441
637f
0041
0000
0000
ENDCHAR
STARTCHAR ch-480
ENCODING 480
SWIDTH 1000 0
DWIDTH 16 0
BBX 16 16 0 -2
BITMAP
2020
2040
2880
29ff
7d01
297d
2945
2945
297d
2945
2901
1101
2905
4502
0000
0000
ENDCHAR
STARTCHAR ch-481
ENCODING 481
SWIDTH 1000 0
DWIDTH 16 0
BBX 16 16 0 -2
BITMAP
2001
21fe
2810
2810
7c10
29ff
2810
2810
28fe
2882
2882
1082
6cfe
0082
0000
0000
ENDCHAR
STARTCHAR ch-483
ENCODING 483
SWIDTH 1000 0
DWIDTH 16 0
BBX 16 16 0 -2
BITMAP
0820
0802
09ff
7e00
1244
1283
1345
2228
1428
0810
1428
2244
4087
0302
0000
0000
ENDCHAR
STARTCHAR ch-484
ENCODING 484
SWIDTH 1000 0
DWIDTH 16 0
BBX 16 16 0 -2
BITMAP
2004
2038
29e0
7d00
297e
2900
2900
297e
2942
2942
2a42
1042
287e
4442
0000
0000
ENDCHAR
STARTCHAR ch-485
ENCODING 485
SWIDTH 1000 0
DWIDTH 16 0
BBX 16 16 0 -2
BITMAP
1040
1042
11f6
7c48
2450
2462
27ff
2480
2580
2a80
10fe
2880
2480
407f
0000
0000
ENDCHAR
STARTCHAR ch-486
ENCODING 486
SWIDTH 1000 0
DWIDTH 16 0
BBX 16 16 0 -2
BITMAP
0200
3ffc
0420
0660
0180
0660
381c
1010
7f7f
1414
1414
1414
0808
7777
0000
0000
ENDCHAR
STARTCHAR ch-488
ENCODING 488
SWIDTH 1000 0
DWIDTH 16 0
BBX 16 16 0 -2
BITMAP
1020
17ff
1020
7dfc
2424
25fc
2520
45fe
2822
1022
2854
2488
4107
0602
0000
0000
ENDCHAR
STARTCHAR ch-489
ENCODING 489
SWIDTH 1000 0
DWIDTH 16 0
BBX 16 16 0 -2
BITMAP
2040
2042
28ff
7d08
2808
28fe
2848
2848
2848
29ff
2808
1008
2808
4408
0000
0000
ENDCHAR
STARTCHAR ch-490
ENCODING 490
SWIDTH 1000 0
DWIDTH 16 0
BBX 16 16 0 -2
BITMAP
2002
25ff
2410
7e20
2442
25ff
2411
2410
2414
24fe
1810
2410
2412
45ff
0000
0000
ENDCHAR
STARTCHAR ch-492
ENCODING 492
SWIDTH 1000 0
DWIDTH 16 0
BBX 16 16 0 -2
BITMAP
0802
08ff
0888
0888
7e88
12be
12a2
12a2
22a2
14be
0888
1488
2288
42ff
0000
0000
ENDCHAR
STARTCHAR ch-493
ENCODING 493
SWIDTH 1000 0
DWIDTH 16 0
BBX 16 16 0 -2
BITMAP
0100
1ffc
0104
0614
1018
7e7f
2221
4cc6
0410
7fff
0220
01c0
0220
7c1f
0000
0000
ENDCHAR
STARTCHAR ch-494
ENCODING 494
SWIDTH 1000 0
DWIDTH 16 0
BBX 16 16 0 -2
BITMAP
2000
21ff
2400
2400
7efe
2482
24fe
2482
2482
24fe
1882
1800
25ff
4200
0000
0000
ENDCHAR
STARTCHAR ch-497
ENCODING 497
SWIDTH 1000 0
DWIDTH 16 0
BBX 16 16 0 -2
BITMAP
2010
21ff
2828
7c44
2882
297d
2800
29ff
2840
287e
2802
1002
2804
4438
0000
0000
ENDCHAR
STARTCHAR ch-498
ENCODING 498
SWIDTH 1000 0
DWIDTH 16 0
BBX 16 16 0 -2
BITMAP
2008
207f
2241
2241
7f20
2222
227f
2222
2222
1414
0808
1414
2222
4141
0000
0000
ENDCHAR
STARTCHAR ch-499
ENCODING 499
SWIDTH 1000 0
DWIDTH 16 0
BBX 16 16 0 -2
BITMAP
2040
207e
2842
2884
7d48
2830
2820
287e
28c2
2b42
2842
1042
287e
4442
0000
0000
ENDCHAR
STARTCHAR ch-500
ENCODING 500
SWIDTH 1000 0
DWIDTH 16 0
BBX 16 16 0 -2
BITMAP
7fc1
0801
1f91
3111
0a11
0401
1803
0410
7fff
0410
0220
01c0
0220
7c1f
0000
0000
ENDCHAR
STARTCHAR ch-501
ENCODING 501
SWIDTH 1000 0
DWIDTH 16 0
BBX 16 16 0 -2
BITMAP
23fe
2202
2afa
7e22
2a22
2afa
2aaa
2aaa
2aaa
2aaa
2ab2
1222
2821
4420
0000
0000
ENDCHAR
STARTCHAR ch-502
ENCODING 502
SWIDTH 1000 0
DWIDTH 16 0
BBX 16 16 0 -2
BITMAP
2008
2014
2222
2241
7f00
227e
2200
227e
2242
1442
0842
1442
227e
4142
0000
0000
ENDCHAR
STARTCHAR ch-503
ENCODING 503
SWIDTH 1000 0
DWIDTH 16 0
BBX 16 16 0 -2
BITMAP
2040
2042
29ff
2840
7c40
28fe
2942
2a7e
2842
287e
2842
1042
284a
4484
0000
0000
ENDCHAR
STARTCHAR ch-506
ENCODING 506
SWIDTH 1000 0
DWIDTH 16 0
BBX 16 16 0 -2
BITMAP
2010
2090
28fe
2890
7d10
2810
29ff
2848
2848
2848
2848
1089
2909
440f
0000
0000
ENDCHAR
STARTCHAR ch-507
ENCODING 507
SWIDTH 1000 0
DWIDTH 16 0
BBX 16 16 0 -2
BITMAP
0802
08ff
0892
7e92
12fe
1292
1292
22aa
14a6
08c6
1482
2282
42fe
0082
0000
0000
ENDCHAR
STARTCHAR ch-508
ENCODING 508
SWIDTH 1000 0
DWIDTH 16 0
BBX 16 16 0 -2
BITMAP
207e
2044
28a8
2910
7c20
28c8
281f
2821
2852
280c
2808
1010
2820
44c0
0000
0000
ENDCHAR
STARTCHAR ch-509
ENCODING 509
SWIDTH 1000 0
DWIDTH 16 0
BBX 16 16 0 -2
BITMAP
2040
20fc
2904
2808
7cff
2880
28fe
28a2
28a2
28bc
28a0
1121
2821
443f
0000
0000
ENDCHAR
STARTCHAR ch-510
ENCODING 510
SWIDTH 1000 0
DWIDTH 16 0
BBX 16 16 0 -2
BITMAP
2008
2014
2222
2241
7f00
223e
2208
2208
223e
1408
0808
1408
227f
4100
0000
0000
ENDCHAR
STARTCHAR ch-511
ENCODING 511
SWIDTH 1000 0
DWIDTH 16 0
BBX 16 16 0 -2
BITMAP
1084
10fe
0504
0928
7220
1050
1088
1307
0100
7fff
0620
01c0
0638
3806
0000
0000
ENDCHAR
ENDFONT
